<svg width="98" height="98" viewBox="0 0 98 98" fill="none" xmlns="http://www.w3.org/2000/svg">
<path d="M83.8493 61.1684C85.3275 62.1585 87.0792 62.7103 88.8926 62.7103C93.9144 62.7103 97.9999 58.6248 97.9999 53.603V50.5344C97.9999 45.5127 93.9144 41.4271 88.8926 41.4271C87.6483 41.4271 86.4336 41.6859 85.3103 42.1738L85.4668 40.1395C85.5627 38.8927 85.1305 37.6512 84.2807 36.7338C83.431 35.8162 82.2265 35.29 80.9759 35.29H44.642C43.3913 35.29 42.1868 35.8164 41.337 36.7338C40.4873 37.6512 40.0549 38.8927 40.1508 40.1395L41.1467 53.0862C38.9957 52.4821 36.7241 52.1677 34.4308 52.1677H34.3535C30.7765 52.1677 27.2504 52.9289 24.1562 54.3692C23.1115 54.8556 22.4182 55.8302 22.2773 56.9295C16.6027 58.0634 12.6668 60.8058 10.7828 62.388C9.50094 63.4645 9.23278 65.3242 10.1592 66.7134L10.5194 67.2537L6.63463 71.6936C5.75991 72.6933 5.13458 73.8825 4.79101 75.1827H1.43547C0.959056 75.1827 0.513845 75.4189 0.246834 75.8134C-0.0203694 76.2079 -0.0741545 76.709 0.102705 77.1514L2.0139 81.9294C2.93628 84.2353 5.13707 85.7254 7.62057 85.7254H90.3793C92.8628 85.7254 95.0636 84.2355 95.9859 81.9294L97.8971 77.1514C98.074 76.709 98.0202 76.2077 97.753 75.8134C97.486 75.4189 97.0406 75.1827 96.5644 75.1827H81.4576C82.3745 74.0341 82.9686 72.6152 83.0882 71.0618L83.8493 61.1684ZM85.0427 45.6539C86.1465 44.7769 87.4946 44.2984 88.8926 44.2984C92.3312 44.2984 95.1288 47.096 95.1288 50.5346V53.6032C95.1288 57.0418 92.3312 59.8394 88.8926 59.8394C87.0544 59.8394 85.307 59.0074 84.1241 57.5946L85.0427 45.6539ZM12.6293 64.5865C14.2639 63.2137 17.6436 60.8543 22.5221 59.8096L22.5799 60.2908C22.6743 61.078 23.3894 61.6388 24.1763 61.545C24.9635 61.4505 25.5249 60.7358 25.4305 59.9487L25.1241 57.3959C25.103 57.2202 25.2008 57.0499 25.3678 56.9722C28.0851 55.7073 31.1922 55.0388 34.3535 55.0388H34.4308C37.5921 55.0388 40.6992 55.7073 43.4164 56.9722C43.5833 57.0499 43.6813 57.22 43.6601 57.3963L41.5261 75.1829H27.2585L26.1889 66.2682C26.0943 65.4811 25.3804 64.9197 24.5926 65.0139C23.8055 65.1085 23.2439 65.8232 23.3383 66.6102L24.3669 75.1829H19.2563L12.5485 65.1209C12.4329 64.9475 12.467 64.7228 12.6293 64.5865ZM8.79561 73.5839L12.1695 69.728L15.8059 75.1825H7.81542C8.05487 74.5965 8.38217 74.0563 8.79561 73.5839ZM82.6045 39.9196L80.2255 70.8414C80.0382 73.2758 77.979 75.1827 75.5376 75.1827H75.084C74.2912 75.1827 73.6485 75.8255 73.6485 76.6183C73.6485 77.4111 74.2912 78.0538 75.084 78.0538H94.444L93.3202 80.8633C92.8363 82.0728 91.682 82.8545 90.3793 82.8545H7.62057C6.31786 82.8545 5.16349 82.073 4.67961 80.8633L3.55586 78.0538H68.9462C69.739 78.0538 70.3817 77.4111 70.3817 76.6183C70.3817 75.8255 69.739 75.1827 68.9462 75.1827H63.9935C63.6502 73.8825 63.0246 72.6931 62.1499 71.6934L58.2651 67.2537L58.6254 66.7134C59.5516 65.324 59.2834 63.4645 58.0018 62.3878C56.1179 60.8058 52.1819 58.0634 46.5072 56.9295C46.3664 55.8302 45.6731 54.8556 44.6284 54.3692C44.4561 54.289 44.2821 54.2117 44.1074 54.1359L43.0139 39.9196C42.9785 39.461 43.1312 39.0223 43.444 38.6846C43.7567 38.347 44.1822 38.1611 44.6424 38.1611H80.9762C81.4364 38.1611 81.8619 38.347 82.1745 38.6846C82.487 39.0223 82.6398 39.4608 82.6045 39.9196ZM56.2364 65.1207L49.5284 75.1827H44.4178L46.2622 59.8096C51.141 60.8543 54.5206 63.2137 56.1553 64.5863C56.3178 64.7228 56.3518 64.9475 56.2364 65.1207ZM56.6154 69.7282L59.9891 73.5839C60.4024 74.0563 60.7297 74.5965 60.9693 75.1827H52.9791L56.6154 69.7282Z" fill="#00A884"/>
<path d="M63.7799 21.0865C63.0386 20.4066 62.7109 20.0745 62.7109 19.33C62.7109 18.5883 63.0384 18.2571 63.7792 17.5788C64.6235 16.8057 65.7796 15.747 65.7796 13.7101C65.7796 12.9173 65.1368 12.2745 64.344 12.2745C63.5512 12.2745 62.9085 12.9173 62.9085 13.7101C62.9085 14.4518 62.581 14.7829 61.8402 15.4613C60.9959 16.2343 59.8398 17.293 59.8398 19.3298C59.8398 21.3682 60.9956 22.4283 61.8395 23.2021C62.5808 23.882 62.9085 24.2141 62.9085 24.9586C62.9085 25.7038 62.5808 26.0357 61.8395 26.7156C60.9956 27.4894 59.8398 28.5496 59.8398 30.5879C59.8398 31.3807 60.4826 32.0235 61.2754 32.0235C62.0682 32.0235 62.7109 31.3807 62.7109 30.5879C62.7109 29.8433 63.0386 29.5112 63.7799 28.8314C64.6238 28.0575 65.7796 26.9973 65.7796 24.959C65.7796 22.9206 64.6238 21.8605 63.7799 21.0865Z" fill="#00A884"/>
<path d="M58.1847 24.0829C57.1147 22.6928 56.5723 21.0938 56.5723 19.3305C56.5723 18.5791 56.6703 17.8525 56.8636 17.1709C57.0799 16.4081 56.637 15.6144 55.8744 15.3981C55.112 15.1822 54.3179 15.6247 54.1016 16.3873C53.8359 17.3238 53.7012 18.3141 53.7012 19.3305C53.7012 21.742 54.4442 23.93 55.9096 25.8339C56.1921 26.2016 56.6176 26.3942 57.0481 26.3942C57.3538 26.3942 57.6618 26.2969 57.9226 26.0962C58.551 25.6127 58.6684 24.7113 58.1847 24.0829Z" fill="#00A884"/>
<path d="M70.3198 19.3332C71.0657 18.143 71.5546 16.8491 71.7768 15.4739C71.9033 14.6912 71.3712 13.9543 70.5886 13.8278C69.8059 13.7005 69.0688 14.2332 68.9425 15.016C68.7413 16.2605 68.2339 17.4187 67.4344 18.4583C67.0376 18.9741 67.0374 19.6926 67.4344 20.2087C68.503 21.5983 69.0449 23.1963 69.0449 24.9584C69.0449 26.1976 68.778 27.3592 68.2517 28.4112C67.897 29.1202 68.1841 29.9826 68.8933 30.3373C69.0994 30.4405 69.3186 30.4893 69.5345 30.4893C70.0609 30.4893 70.5679 30.1985 70.8194 29.6957C71.5469 28.2414 71.916 26.6476 71.916 24.9584C71.916 22.9096 71.3796 21.0223 70.3198 19.3332Z" fill="#00A884"/>
</svg>
