<svg width="20" height="20" viewBox="0 0 20 20" fill="none" xmlns="http://www.w3.org/2000/svg">
<g clip-path="url(#clip0_1529_34073)">
<path d="M0.237744 10.3849C0.319758 10.8496 0.425204 11.3144 0.557987 11.7596C0.706393 12.279 0.901663 12.7828 1.1438 13.2671C1.22972 13.4311 1.42889 13.4936 1.59292 13.4077C1.75304 13.3257 1.81553 13.1265 1.73742 12.9664C1.5812 12.6539 1.44451 12.3298 1.33516 12.0017H2.33885C3.66278 11.9549 3.66278 10.049 2.33885 10.0022H0.858703C0.788406 9.57257 0.741541 9.12735 0.710298 8.67042H1.67103C2.22169 8.67042 2.67081 8.2213 2.67081 7.67063C2.67081 7.11997 2.22169 6.67085 1.67103 6.67085H0.710298C0.741541 6.21392 0.788406 5.7687 0.858703 5.33911H2.33885C2.88951 5.34301 3.34254 4.9017 3.35035 4.35104C3.35816 3.80038 2.90904 3.33954 2.35447 3.33173C2.34666 3.33173 2.34276 3.33173 2.33495 3.33173H1.33516C3.13555 -1.64766 6.07242 1.05488 6.57231 5.93273C6.59184 6.11628 6.75196 6.24907 6.93551 6.23344C7.11907 6.21392 7.25185 6.0538 7.23623 5.87024C6.84569 2.3671 5.4085 -0.00348461 3.67059 0.000420789C1.87801 -0.0386332 0.593136 2.64828 0.237744 4.94076C-0.0746881 6.73724 -0.0785936 8.5884 0.237744 10.3849ZM2.67081 10.998C2.67081 11.1816 2.52241 11.33 2.33885 11.33H1.13208C1.0696 11.1113 1.01882 10.9043 0.97196 10.6622H2.33885C2.5185 10.6661 2.67081 10.8145 2.67081 10.998ZM2.00299 7.66673C2.00299 7.85028 1.85458 7.99869 1.67103 7.99869H0.675149C0.667339 7.77998 0.667339 7.55347 0.675149 7.33086H1.66712C1.85458 7.33086 2.00299 7.48317 2.00299 7.66673ZM2.67081 4.33151C2.67081 4.51507 2.52241 4.66347 2.33885 4.66347H0.97196C1.01882 4.44086 1.0696 4.21435 1.13208 3.99565H2.33885C2.5185 3.99955 2.67081 4.14796 2.67081 4.33151Z" fill="#00A884"/>
<path d="M14.6684 5.99922H10.6693C8.29867 5.97188 5.41649 7.22161 5.33838 9.66639C5.34228 10.2444 5.52974 10.8068 5.87342 11.2715C5.97886 11.4238 6.18585 11.459 6.33816 11.3535C6.49047 11.2481 6.52562 11.0411 6.42018 10.8888C5.63519 9.79527 6.02182 8.50649 7.19735 7.67464C9.56793 5.80785 15.2542 6.64361 15.3362 9.66639C15.3362 10.1741 15.1409 10.6623 14.7504 11.1114C14.6996 11.17 14.6684 11.2481 14.6684 11.3301V15.2199C14.6723 15.6573 15.3128 15.6768 15.3362 15.2316C15.344 15.2316 15.3284 11.4551 15.3362 11.4512C16.7343 9.76012 15.7853 7.60043 13.7272 6.66704H14.6684C17.8122 6.65923 20.5812 8.79939 18.7495 11.1114C18.6988 11.17 18.6675 11.2481 18.6675 11.3301V19.3323H14.8754C14.438 19.344 14.4341 19.9845 14.8754 20.0001H18.9995C19.183 20.0001 19.3314 19.8517 19.3314 19.6681C19.3314 19.6681 19.3314 11.4551 19.3314 11.4512C21.3935 8.69004 18.3434 5.97579 14.6684 5.99922Z" fill="#00A884"/>
<path d="M8.66936 8.33057C9.11067 8.34228 9.11067 8.98277 8.66936 8.99839C8.22805 8.98667 8.22805 8.34619 8.66936 8.33057Z" fill="#00A884"/>
<path d="M10.3334 7.66675C10.7747 7.67846 10.7747 8.31895 10.3334 8.33457C9.89602 8.31895 9.89602 7.67846 10.3334 7.66675Z" fill="#00A884"/>
<path d="M12.0009 8.33057C12.4422 8.34228 12.4422 8.98277 12.0009 8.99839C11.5596 8.98667 11.5596 8.34619 12.0009 8.33057Z" fill="#00A884"/>
<path d="M11.0009 9.66626C11.4422 9.67798 11.4422 10.3185 11.0009 10.3341C10.5596 10.3185 10.5596 9.67798 11.0009 9.66626Z" fill="#00A884"/>
<path d="M9.66936 9.66626C10.1107 9.67798 10.1107 10.3185 9.66936 10.3341C9.22805 10.3185 9.22805 9.67798 9.66936 9.66626Z" fill="#00A884"/>
<path d="M7.33386 11.9978C3.27224 11.9978 0.00341797 15.044 0.00341797 17.563C0.00341797 19.9492 2.88951 19.9726 4.99843 19.9922C5.18198 19.9883 5.33039 19.8438 5.33429 19.6602C5.33429 19.4767 5.18979 19.3243 5.00624 19.3243C2.19435 19.3009 0.667337 19.0119 0.671242 17.563C0.671242 16.4578 1.54996 15.0518 3.00277 14.0325V14.9972C3.04963 16.3211 4.95547 16.3211 5.00233 14.9972V13.0405C5.43583 12.9 5.88105 12.7984 6.33408 12.7398V13.9974C6.33408 14.548 6.77929 14.9972 7.33386 14.9972C7.88452 14.9972 8.33364 14.5519 8.33364 13.9974C8.33364 13.9974 8.33364 12.7398 8.33364 12.7359C8.78667 12.7945 9.23189 12.896 9.66539 13.0366V14.9932C9.71225 16.3172 11.6181 16.3172 11.665 14.9932V14.0286C13.2584 15.1299 14.7073 17.3013 13.6333 18.5433C12.8522 19.4532 9.57166 19.3243 7.33386 19.3165L6.33408 19.3204C6.15052 19.3204 6.00212 19.4688 6.00212 19.6524C6.00212 19.8359 6.15052 19.9844 6.33408 19.9844L7.33386 19.9804C7.93529 19.9804 8.54063 19.9844 9.13425 19.9844C11.4267 19.9844 13.2193 19.8945 14.1058 19.008C14.4768 18.637 14.6643 18.1488 14.6643 17.5513C14.6682 15.044 11.3955 11.9978 7.33386 11.9978ZM4.33451 14.9972C4.33451 15.1807 4.1861 15.3291 4.00255 15.3291C3.819 15.3291 3.67059 15.1807 3.67059 14.9972V13.6225C3.88539 13.5053 4.108 13.392 4.33842 13.2944V14.9972H4.33451ZM11.001 14.9972C11.001 15.1807 10.8526 15.3291 10.6691 15.3291C10.4855 15.3291 10.3371 15.1807 10.3371 14.9972V13.2944C10.5675 13.392 10.7901 13.5014 11.0049 13.6225V14.9972H11.001ZM7.66972 13.9974C7.66972 14.1809 7.52132 14.3293 7.33777 14.3293C7.15421 14.3293 7.00581 14.1809 7.00581 13.9974V12.6812C7.22841 12.6695 7.45102 12.6695 7.67363 12.6812L7.66972 13.9974Z" fill="#00A884"/>
</g>
<defs>
<clipPath id="clip0_1529_34073">
<rect width="20" height="20" fill="white"/>
</clipPath>
</defs>
</svg>
