<svg width="40" height="29" viewBox="0 0 40 29" fill="none" xmlns="http://www.w3.org/2000/svg">
<path opacity="0.5" d="M8.08036 2.22656H3.2207V26.4066H8.08036V2.22656Z" fill="#C5F4EA"/>
<path d="M37.8468 17.0287C37.8468 18.0988 36.9793 18.9662 35.9093 18.9662H21.5605C20.4905 18.9662 19.623 18.0988 19.623 17.0287V13.8372C19.623 12.2252 20.3064 10.9062 21.1417 10.9062H36.3281C37.1634 10.9062 37.8468 12.2252 37.8468 13.8372V17.0287Z" fill="#C5F4EA"/>
<path d="M33.8364 19.1993H23.1452C20.7251 19.1993 18.7715 17.2522 18.7715 14.84C18.7715 12.4278 20.7251 10.4806 23.1452 10.4806H33.8364C36.2565 10.4806 38.2101 12.4278 38.2101 14.84C38.2101 17.2522 36.2565 19.1993 33.8364 19.1993Z" stroke="#00A884" stroke-width="2.26042" stroke-miterlimit="10"/>
<path d="M33.8367 19.1992H33.3978V24.6888C33.3978 25.4929 32.2136 26.6263 31.4069 26.6263H5.18038C4.37368 26.6263 3.29923 25.1699 3.29923 24.3659V5.15234C3.29923 4.34828 4.37368 3.05339 5.18038 3.05339H31.4069C32.2136 3.05339 33.0842 4.34828 33.0842 5.15234V10.4805H33.8367C34.5365 10.4805 35.1974 10.6645 35.7805 10.9552V5.15234C35.7805 2.74984 33.8172 0.792969 31.4069 0.792969H5.16471C2.75432 0.792969 0.791016 2.74984 0.791016 5.15234V24.5273C0.791016 26.9298 2.75432 28.8867 5.16471 28.8867H31.4069C33.8172 28.8867 35.7805 26.9298 35.7805 24.5273V18.7245C35.1974 19.0152 34.5365 19.1992 33.8367 19.1992Z" fill="#00A884"/>
<path d="M33.5938 16.0509C34.2648 16.0509 34.8087 15.5087 34.8087 14.84C34.8087 14.1712 34.2648 13.629 33.5938 13.629C32.9228 13.629 32.3789 14.1712 32.3789 14.84C32.3789 15.5087 32.9228 16.0509 33.5938 16.0509Z" fill="#00A884"/>
</svg>
