<svg width="41" height="38" viewBox="0 0 41 38" fill="none" xmlns="http://www.w3.org/2000/svg">
<g clip-path="url(#clip0_1236_30461)">
<path opacity="0.5" d="M36.5 5.67969H31.5L35.5 16.4489H40.5L36.5 5.67969Z" fill="#E1E1E1"/>
<path d="M24.3457 6.96094V16.448H39.4995" stroke="#00A884" stroke-width="2.69231" stroke-miterlimit="10"/>
<path d="M10.5 36.9617C7.47 36.9617 5 34.4284 5 31.3207C5 28.213 7.47 25.6797 10.5 25.6797C13.53 25.6797 16 28.213 16 31.3207C16 34.4284 13.53 36.9617 10.5 36.9617ZM10.5 28.7566C9.12 28.7566 8 29.9053 8 31.3207C8 32.7361 9.12 33.8848 10.5 33.8848C11.88 33.8848 13 32.7361 13 31.3207C13 29.9053 11.88 28.7566 10.5 28.7566Z" fill="#00A884"/>
<path d="M30.5 36.9617C27.47 36.9617 25 34.4284 25 31.3207C25 28.213 27.47 25.6797 30.5 25.6797C33.53 25.6797 36 28.213 36 31.3207C36 34.4284 33.53 36.9617 30.5 36.9617ZM30.5 28.7566C29.12 28.7566 28 29.9053 28 31.3207C28 32.7361 29.12 33.8848 30.5 33.8848C31.88 33.8848 33 32.7361 33 31.3207C33 29.9053 31.88 28.7566 30.5 28.7566Z" fill="#00A884"/>
<path opacity="0.5" d="M2 26.7031H7.35C5.93 27.7185 5 29.4108 5 31.3185C3.34 31.3185 2 29.9442 2 28.2416V26.7031Z" fill="#C5F4EA"/>
<path opacity="0.5" d="M27.3504 26.703C25.9304 27.7286 25.0004 29.4107 25.0004 31.3184H16.0004C16.0004 29.4107 15.0704 27.7184 13.6504 26.703H27.3504Z" fill="#C5F4EA"/>
<path opacity="0.5" d="M33.6504 26.703C35.0704 27.7286 36.0004 29.4107 36.0004 31.3184C37.6604 31.3184 39.0004 29.944 39.0004 28.2415V26.703H33.6504Z" fill="#C5F4EA"/>
<path d="M26.7992 32.8582C26.6092 32.3864 26.4992 31.8633 26.4992 31.3197C26.4992 30.7761 26.6092 30.253 26.7992 29.7812H14.1992C14.3892 30.253 14.4992 30.7761 14.4992 31.3197C14.4992 31.8633 14.3892 32.3864 14.1992 32.8582H26.7992Z" fill="#00A884"/>
<path d="M37.14 7.11599C36.48 5.33137 34.79 4.14163 32.93 4.14163H25.97C25.72 1.83393 23.81 0.0390625 21.5 0.0390625H5C2.52 0.0390625 0.5 2.11086 0.5 4.65445V28.2442C0.5 30.7878 2.52 32.8596 5 32.8596H6.8C6.61 32.3878 6.5 31.8647 6.5 31.3211C6.5 30.7775 6.61 30.2544 6.8 29.7827H5C4.17 29.7827 3.5 29.0955 3.5 28.2442V4.65445C3.5 3.80316 4.17 3.11599 5 3.11599H21.5C22.33 3.11599 23 3.80316 23 4.65445V7.21855H32.93C33.55 7.21855 34.11 7.61855 34.33 8.21342L37.5 16.7365V28.2442C37.5 29.0955 36.83 29.7827 36 29.7827H34.2C34.39 30.2544 34.5 30.7775 34.5 31.3211C34.5 31.8647 34.39 32.3878 34.2 32.8596H36C38.48 32.8596 40.5 30.7878 40.5 28.2442V16.1621L37.14 7.11599Z" fill="#00A884"/>
<path d="M19 16.45H7.5C6.4 16.45 5.5 15.5269 5.5 14.3987V7.21925C5.5 6.09105 6.4 5.16797 7.5 5.16797H19C20.1 5.16797 21 6.09105 21 7.21925V14.3987C21 15.5269 20.1 16.45 19 16.45Z" fill="#C5F4EA"/>
</g>
<defs>
<clipPath id="clip0_1236_30461">
<rect width="40" height="37" fill="white" transform="translate(0.5 0.5)"/>
</clipPath>
</defs>
</svg>
