<svg width="41" height="40" viewBox="0 0 41 40" fill="none" xmlns="http://www.w3.org/2000/svg">
<path d="M35.8088 11.8739H17.6533L15.2714 7.03076H15.9047C16.457 7.03076 16.9047 6.58305 16.9047 6.03076V2.00012C16.9047 0.895553 16.0093 0.00012207 14.9047 0.00012207H4.84344C3.73888 0.00012207 2.84344 0.895553 2.84344 2.00012V6.03076C2.84344 6.58305 3.29116 7.03076 3.84344 7.03076H4.47675L0.5 15.1167V33.6527C0.5 35.8619 2.29086 37.6527 4.5 37.6527H16.2812C17.5959 39.2909 19.5472 40.2928 21.6407 39.9235C22.0158 39.8576 22.3869 39.7392 22.7635 39.5649C23.1398 39.7392 23.5109 39.8576 23.8859 39.9235C25.9541 40.2885 27.9103 39.3171 29.2454 37.6527H38.1526V20.6208C39.5817 19.7944 40.496 18.253 40.496 16.5611C40.496 13.9766 38.3934 11.8739 35.8088 11.8739ZM5.18689 3.34357C5.18689 2.79128 5.6346 2.34357 6.18689 2.34357H13.561C14.1133 2.34357 14.561 2.79128 14.561 3.34357V4.68701H5.18689V3.34357ZM7.08844 7.03076H12.6597L16.9047 15.6617V17.0085L15.9977 17.462C14.4407 18.2405 12.574 18.1242 11.1253 17.1586C8.5777 15.4603 5.25006 15.5854 2.84344 17.3625V15.6617L7.08844 7.03076ZM4.84339 35.309C3.73884 35.309 2.84344 34.4136 2.84344 33.309V20.5616L3.68878 19.716C5.32239 18.0827 7.90326 17.827 9.82526 19.1084C11.9282 20.5104 14.6263 20.7032 16.9047 19.6257V27.0881C14.9928 28.6198 14.1856 31.3478 14.6501 33.983C14.7307 34.4389 14.8466 34.8826 14.9949 35.3093L4.84339 35.309ZM24.2927 37.6158C23.6958 37.5105 23.2347 37.1287 22.7635 36.8626C22.2905 37.1299 21.8309 37.5105 21.2339 37.6158C19.1548 37.9823 17.357 35.8384 16.9581 33.5762C16.3078 29.8881 18.9909 27.1974 21.5916 28.7724V29.6221C21.5916 30.1744 22.0393 30.6221 22.5916 30.6221H22.9354C23.4876 30.6221 23.9354 30.1744 23.9354 29.6221V28.7724C24.4563 28.4568 25.1405 28.2121 25.9208 28.3497C27.8297 28.6863 29.0178 31.031 28.5688 33.5759C28.1788 35.7878 26.4052 37.9881 24.2927 37.6158ZM36.5901 18.7715L35.8088 19.0477V35.309H30.532C30.6804 34.8826 30.7963 34.4389 30.8766 33.983C31.512 30.3801 29.7148 26.6392 26.3279 26.0417C25.5742 25.9089 24.806 25.9565 24.0617 26.1741C24.3694 25.058 25.2145 24.1621 26.3002 23.7848C26.9114 23.5724 27.4504 23.0668 27.4504 22.4197C27.4504 21.7726 26.9203 21.2358 26.2861 21.3642C23.8916 21.849 22.0222 23.7991 21.6569 26.2346C20.8693 25.9718 20.0514 25.901 19.2482 26.0344V15.1167L18.806 14.2173H35.8088C37.1013 14.2173 38.1526 15.2687 38.1526 16.5611C38.1526 17.5529 37.5245 18.4413 36.5901 18.7715Z" fill="#00A884"/>
<path d="M9.95282 21.3243C7.36829 21.3243 5.26562 23.427 5.26562 26.0115C5.26562 28.5958 7.36829 30.6984 9.95282 30.6984C12.5374 30.6984 14.6397 28.5958 14.6397 26.0115C14.6397 23.427 12.5374 21.3243 9.95282 21.3243Z" fill="#C5F4EA"/>
</svg>
