<svg width="98" height="98" viewBox="0 0 98 98" fill="none" xmlns="http://www.w3.org/2000/svg">
<path d="M88.7842 52.9197C88.7503 51.047 88.7261 49.6938 88.7261 49.014C88.7261 43.3742 87.2864 11.1117 87.1221 7.45168C87.0071 4.88355 86.9077 2.6654 85.339 1.25982C84.1975 0.236692 82.5826 -0.127745 79.9388 0.0436849C75.6465 0.321102 68.0123 1.30416 61.2767 2.17174C59.0507 2.4584 56.8752 2.73867 54.994 2.96985C54.976 2.97174 54.958 2.97412 54.9397 2.97649C52.2338 3.30891 50.1459 3.53867 49.4092 3.53867H48.5899C47.3382 3.53867 42.1844 2.87477 36.7283 2.17198C30.039 1.31056 22.4572 0.334143 18.1478 0.0493755C16.1506 -0.0826942 14.1069 -0.0293447 12.6862 1.24156C11.3634 2.42521 11.0217 4.23316 10.9159 6.58363C10.8488 8.07291 9.27324 43.1288 9.27324 49.014C9.27324 49.6936 9.24882 51.0473 9.21492 52.9209C9.0442 62.3683 8.68948 82.0265 9.94355 90.6658C10.6976 95.859 12.7943 98.0001 17.3006 98.0001C17.6759 98.0001 18.0683 97.9851 18.4778 97.9559C21.8915 97.7124 27.1588 97.0765 32.4101 96.4095C32.4253 96.4076 32.4405 96.4057 32.4559 96.4038C33.8937 96.221 35.3294 96.0361 36.7257 95.8561C42.183 95.1533 47.3373 94.4894 48.5895 94.4894H49.4087C50.6611 94.4894 55.817 95.1536 61.276 95.8566C67.59 96.6696 74.7466 97.591 79.1436 97.928C84.8124 98.3624 87.2247 96.3917 88.0558 90.6601C89.3094 82.0175 88.9549 62.3645 88.7842 52.9197ZM84.7709 90.1837C84.1864 94.2151 83.3314 94.9183 79.3975 94.6182C75.0857 94.2879 67.9743 93.3719 61.7002 92.5641C54.9881 91.6996 50.8036 91.1699 49.4089 91.1699H48.5897C48.2798 91.1699 47.8326 91.196 47.2503 91.246C48.4911 90.7213 49.6245 90.226 50.6341 89.7847C52.6023 88.9242 54.6372 88.0348 55.1963 87.967C56.0994 87.9514 56.8266 87.2144 56.8266 86.3075C56.8266 85.3908 56.0835 84.6477 55.1669 84.6477C54.1392 84.6477 52.7145 85.2526 49.3046 86.7431C45.1948 88.5392 38.9944 91.2493 31.9074 93.127C26.7297 93.7843 21.5583 94.4081 18.2414 94.6447C14.6881 94.8994 13.7973 94.1067 13.2282 90.1887C12.013 81.8164 12.3777 61.6095 12.5335 52.9806C12.5676 51.0897 12.5923 49.7237 12.5923 49.014C12.5923 43.2025 14.1646 8.2192 14.2317 6.73277C14.2803 5.65036 14.4026 4.15966 14.8991 3.71532C15.1908 3.45426 15.8523 3.32314 16.8714 3.32314C17.1889 3.32314 17.5415 3.33594 17.9282 3.36131C22.1345 3.63944 29.662 4.60898 36.3034 5.46447C39.5843 5.887 42.2608 6.22962 44.3025 6.46934C41.3572 7.62382 38.7962 8.76313 36.7452 9.67529C34.8239 10.5298 32.8376 11.4131 32.2854 11.4835C31.3832 11.5003 30.6572 12.237 30.6572 13.143C30.6572 14.0597 31.4003 14.8028 32.3169 14.8028C33.3441 14.8028 34.7444 14.1981 38.0941 12.7082C42.1885 10.8872 48.3656 8.13953 55.4832 6.25333C57.2247 6.03899 59.3006 5.77271 61.6997 5.46376C68.3862 4.60258 75.9649 3.62664 80.1518 3.35586C82.1188 3.22877 82.8534 3.48983 83.1225 3.73144C83.6527 4.20661 83.7302 5.93158 83.8047 7.59987C84.3993 20.854 85.4054 44.4917 85.4054 49.0136C85.4054 49.723 85.43 51.089 85.4642 52.9792C85.6209 61.6062 85.9856 81.8079 84.7709 90.1837ZM59.0951 45.11L52.319 49.0226L59.0951 52.9349L66.4452 50.7943C67.3258 50.5372 68.2468 51.0439 68.5028 51.9238C68.7591 52.8038 68.2534 53.7252 67.3732 53.9815L63.0756 55.2332L67.3408 57.6955C68.1346 58.1541 68.4066 59.1692 67.9485 59.963C67.4899 60.7569 66.4751 61.0286 65.681 60.5707L61.4164 58.1084L62.481 62.4555C62.6991 63.3459 62.154 64.2443 61.2637 64.4624C60.375 64.6796 59.4747 64.1357 59.2568 63.2451L57.4355 55.8103L50.659 51.8978V59.7226L56.1874 65.0172C56.8494 65.6513 56.8722 66.7019 56.2381 67.3639C55.6039 68.0262 54.5535 68.0484 53.8915 67.4146L50.659 64.3187V69.2435C50.659 70.1601 49.9156 70.9032 48.9992 70.9032C48.0828 70.9032 47.3394 70.1601 47.3394 69.2435V64.3192L44.1067 67.4146C43.4447 68.0487 42.3936 68.0262 41.76 67.3637C41.126 66.7017 41.1488 65.651 41.8108 65.0172L47.3392 59.7233V51.8978L40.5626 55.8101L38.7414 63.2458C38.5235 64.1361 37.6248 64.682 36.7345 64.4631C35.8442 64.245 35.2993 63.3466 35.5174 62.4562L36.5823 58.1081L32.3172 60.5707C31.5238 61.0288 30.5083 60.7571 30.0499 59.963C29.5916 59.1692 29.8636 58.1541 30.6574 57.6955L34.9218 55.2336L30.6251 53.982C29.745 53.7256 29.2395 52.8042 29.4958 51.9241C29.7521 51.0439 30.6728 50.5384 31.5537 50.7947L38.9021 52.9354L45.6794 49.0226L38.9021 45.1098L31.5534 47.2502C30.6728 47.5058 29.7519 47.0008 29.4958 46.1208C29.2395 45.2407 29.745 44.3193 30.6251 44.063L34.9218 42.8115L30.6574 40.3494C29.8636 39.8908 29.5916 38.8757 30.0499 38.0819C30.5083 37.2878 31.5236 37.0168 32.3172 37.4742L36.582 39.9368L35.5172 35.5889C35.299 34.6986 35.8439 33.8002 36.7343 33.582C37.6251 33.3641 38.5232 33.909 38.7411 34.7994L40.5624 42.2349L47.339 46.1472V38.3214L41.8105 33.0272C41.1485 32.3932 41.1258 31.3428 41.7598 30.6805C42.3933 30.0185 43.4442 29.9958 44.1064 30.6298L47.3392 33.7255V28.8017C47.3392 27.885 48.0823 27.1419 48.999 27.1419C49.9156 27.1419 50.6587 27.885 50.6587 28.8017V33.7262L53.8912 30.63C54.5532 29.9965 55.6039 30.0188 56.2379 30.6808C56.8719 31.3428 56.8492 32.3937 56.1872 33.0274L50.6587 38.3223V46.1474L57.4353 42.2349L59.2565 34.8001C59.4744 33.9095 60.3733 33.3641 61.2634 33.5828C62.1538 33.8009 62.6989 34.6993 62.4807 35.5896L61.4161 39.9368L65.6808 37.4744C66.4751 37.0163 67.4897 37.2881 67.9482 38.0821C68.4066 38.876 68.1344 39.891 67.3405 40.3496L63.0754 42.8122L67.3732 44.0639C68.2532 44.3202 68.7589 45.2416 68.5026 46.1218C68.2463 47.0017 67.3249 47.5075 66.4447 47.2511L59.0951 45.11Z" fill="#00A884"/>
</svg>
