<svg width="20" height="20" viewBox="0 0 20 20" fill="none" xmlns="http://www.w3.org/2000/svg">
<path d="M19.0624 12.5H17.4999V10.625C17.5002 9.89535 17.3498 9.1735 17.0582 8.50469C16.7665 7.83588 16.3399 7.23451 15.805 6.73827C16.2268 5.60936 17.3771 4.62382 17.3892 4.61327C17.438 4.57189 17.4729 4.51655 17.4892 4.45471C17.5055 4.39287 17.5025 4.32751 17.4805 4.26746C17.4585 4.20741 17.4186 4.15556 17.3662 4.11891C17.3138 4.08225 17.2514 4.06256 17.1874 4.06249C16.2839 4.06249 15.4984 4.23987 14.8398 4.59077C14.9641 4.38222 15.1019 4.18204 15.2523 3.99151C15.5192 3.65215 15.816 3.3374 16.1391 3.05104C16.1879 3.0097 16.2229 2.95435 16.2393 2.89249C16.2557 2.83062 16.2527 2.76521 16.2307 2.7051C16.2087 2.645 16.1688 2.5931 16.1163 2.55641C16.0639 2.51973 16.0014 2.50003 15.9374 2.49999C15.0927 2.49999 14.3476 2.65729 13.7131 2.96714C13.6255 2.31374 13.3292 1.15897 12.3272 0.657997C12.2838 0.636297 12.2359 0.625 12.1874 0.625C12.1389 0.625 12.091 0.636297 12.0476 0.657997C11.0468 1.15843 10.7499 2.3112 10.662 2.96503C10.0296 2.65597 9.28569 2.49999 8.43741 2.49999C8.37344 2.50003 8.31103 2.5197 8.2586 2.55634C8.20616 2.59298 8.16624 2.64483 8.14421 2.70489C8.12219 2.76495 8.11912 2.83032 8.13543 2.89217C8.15174 2.95403 8.18664 3.00938 8.23542 3.05077C8.5586 3.33715 8.85544 3.65194 9.12237 3.99136C9.27248 4.1814 9.41003 4.38105 9.53413 4.58901C8.87675 4.23932 8.09198 4.06249 7.18741 4.06249C7.12344 4.06253 7.06103 4.0822 7.0086 4.11884C6.95616 4.15548 6.91624 4.20733 6.89421 4.26739C6.87219 4.32745 6.86912 4.39282 6.88543 4.45467C6.90174 4.51653 6.93664 4.57188 6.98542 4.61327C6.99773 4.6237 8.14792 5.60936 8.56987 6.73827C8.03497 7.23451 7.60832 7.83588 7.31666 8.50469C7.02499 9.1735 6.8746 9.89535 6.87491 10.625V10.6608C6.53011 10.7264 6.07382 10.8757 5.83015 11.0586C5.79552 11.0845 5.75911 11.1078 5.7212 11.1285C5.80351 10.3759 5.94921 9.60815 6.19741 9.23585C6.22081 9.20172 6.23719 9.16328 6.24561 9.12277C6.25403 9.08226 6.25433 9.04048 6.24647 8.99985C6.23862 8.95923 6.22277 8.92056 6.19986 8.88611C6.17695 8.85166 6.14742 8.8221 6.11299 8.79914C6.07856 8.77619 6.03991 8.76031 5.9993 8.75241C5.95868 8.74451 5.9169 8.74476 5.87638 8.75314C5.83586 8.76152 5.7974 8.77786 5.76325 8.80122C5.72909 8.82458 5.69992 8.85448 5.67741 8.88921C5.39409 9.31421 5.19503 10.0931 5.08519 11.2033C4.98028 11.1734 4.88179 11.1244 4.79468 11.0588C4.46507 10.8112 3.74601 10.625 3.44085 10.625C2.62382 10.625 1.88663 10.9581 1.36511 11.563C0.770694 12.2524 0.516787 13.2324 0.668467 14.2515L0.86378 15.5631C0.98511 16.3949 1.25663 17.1978 1.66511 17.9325C2.1753 18.8466 3.06062 19.3762 3.99714 19.3762C4.2276 19.376 4.45694 19.3442 4.67878 19.2818C4.68589 19.2798 4.69289 19.2776 4.6998 19.2751L5.22253 19.0881C5.28071 19.067 5.34443 19.067 5.40261 19.0881L5.9253 19.2751C5.93222 19.2776 5.93925 19.2798 5.94632 19.2818C6.16817 19.3442 6.39753 19.376 6.628 19.3762C7.31292 19.3762 7.97034 19.0925 8.47382 18.5827C9.53317 19.1002 10.6959 19.371 11.8749 19.375C13.8202 19.375 15.6998 18.6385 17.1679 17.3011C18.5704 16.0232 19.3749 14.3872 19.3749 12.8125C19.3749 12.7296 19.342 12.6501 19.2834 12.5915C19.2248 12.5329 19.1453 12.5 19.0624 12.5ZM10.8681 10.9336L12.1915 9.64843L13.5176 10.9358L12.1948 12.2187L10.8681 10.9336ZM11.5868 12.5H9.80011C9.75452 12.3724 9.70063 12.2479 9.63878 12.1273L10.4194 11.3692L11.5868 12.5ZM13.9662 11.3713L15.1288 12.5H12.8023L13.9662 11.3713ZM12.64 9.2128L13.9623 7.92866L15.2894 9.21772L13.9664 10.5007L12.64 9.2128ZM12.8587 5.98577C13.4328 6.06846 13.9865 6.25777 14.491 6.54393L13.9623 7.05745L12.8587 5.98577ZM13.5137 7.49307L12.1913 8.77733L10.8696 7.49425L12.1923 6.20983L13.5137 7.49307ZM10.4211 7.05858L9.88831 6.54132C10.3951 6.25473 10.9511 6.06581 11.5276 5.98436L10.4211 7.05858ZM10.4211 7.92968L11.7429 9.21288L10.4189 10.4986L9.09565 9.21694L10.4211 7.92968ZM9.9703 10.9342L9.288 11.5969C9.27858 11.5856 9.26933 11.5741 9.25972 11.563C8.8386 11.0715 8.25341 10.7495 7.61284 10.6569L8.64706 9.65257L9.9703 10.9342ZM9.76108 15.5631L9.9564 14.2515C10.0131 13.8782 10.0136 13.4984 9.95772 13.125H17.4444C17.2642 14.1569 16.654 15.1907 15.7336 16.0058C14.6457 16.9694 13.2753 17.5 11.8749 17.5C11.0233 17.4965 10.1832 17.3031 9.41573 16.934C9.57638 16.4897 9.69209 16.0304 9.76112 15.5631H9.76108ZM16.3459 12.5L16.8749 11.9876V12.5H16.3459ZM16.8749 11.1176L15.7372 12.2194L14.4152 10.936L15.7382 9.65315L16.8749 10.7571V11.1176ZM16.8052 9.81819L16.187 9.21788L16.5371 8.87835C16.6593 9.18133 16.7492 9.49635 16.8052 9.81819ZM16.2491 8.28694L15.7384 8.78214L14.4109 7.49307L15.0251 6.89667C15.5209 7.27479 15.9369 7.74734 16.2491 8.28706V8.28694ZM16.3655 4.74725C16.0066 5.14288 15.5739 5.69929 15.3 6.32249C15.0207 6.11975 14.7222 5.9447 14.4089 5.79979C14.4128 5.75112 14.4188 5.70245 14.4264 5.65378C14.9299 5.17186 15.5797 4.86823 16.3655 4.74737V4.74725ZM15.1152 3.18475C14.6078 3.74417 13.9529 4.62487 13.8079 5.56526C13.4402 5.44721 13.0606 5.36992 12.676 5.33479C12.6393 5.221 12.5924 5.09225 12.5328 4.95393C12.9166 4.21905 13.664 3.40893 15.1152 3.18507V3.18475ZM12.1874 1.29714C12.9618 1.80163 13.0966 2.95858 13.12 3.32448C12.7523 3.59438 12.4363 3.92829 12.1869 4.31022C12.0436 4.09101 11.8783 3.88694 11.6936 3.70116C11.5572 3.56434 11.4105 3.43813 11.2549 3.32362C11.2784 2.95683 11.4136 1.80124 12.1874 1.29714ZM9.26007 3.18554C10.9915 3.45429 11.7125 4.55913 12.0066 5.31589C11.5175 5.33205 11.0329 5.41608 10.5669 5.56558C10.5571 5.50214 10.5451 5.43903 10.5308 5.37624L10.5418 5.36604C10.5361 5.35987 10.5301 5.35393 10.5245 5.34784C10.3214 4.49065 9.72804 3.70155 9.26007 3.18554ZM8.00913 4.74722C8.79585 4.86796 9.44515 5.17198 9.94851 5.65452C9.95608 5.70296 9.96206 5.75147 9.96589 5.79991C9.6526 5.94481 9.35416 6.11987 9.0748 6.32261C8.80093 5.69921 8.36808 5.14284 8.00913 4.74722ZM9.35382 6.89358L9.97257 7.49425L8.64655 8.78194L8.12937 8.281C8.44203 7.74231 8.85817 7.27079 9.35382 6.89358ZM7.84054 8.8714L8.19792 9.21757L7.56772 9.82952C7.62407 9.50129 7.71554 9.18007 7.84054 8.8714ZM8.41397 17.6279C8.01784 18.3379 7.33714 18.75 6.62233 18.75C6.45426 18.7499 6.28696 18.7272 6.12491 18.6826L5.61319 18.4996C5.41881 18.4302 5.20641 18.4302 5.01202 18.4996L4.49991 18.6828C3.6171 18.9246 2.69843 18.5017 2.21085 17.6281C1.8392 16.9592 1.59223 16.2284 1.48198 15.4712L1.28667 14.1596C1.16167 13.3205 1.36292 12.5229 1.83851 11.9713C2.03678 11.7414 2.28296 11.5577 2.55977 11.4331C2.83658 11.3085 3.13731 11.246 3.44085 11.25C3.63937 11.25 4.21976 11.4085 4.41948 11.5586C4.60106 11.6955 4.81147 11.7892 5.03472 11.8325C5.01933 12.0813 5.01073 12.2999 5.00593 12.4673C4.73585 12.4067 4.59968 12.2826 4.5923 12.2757L4.59573 12.2791C4.56676 12.2498 4.53228 12.2265 4.49428 12.2106C4.45628 12.1947 4.41551 12.1864 4.37431 12.1863C4.33312 12.1862 4.29231 12.1943 4.25423 12.21C4.21616 12.2258 4.18157 12.2489 4.15246 12.278C4.12335 12.3072 4.10029 12.3418 4.08461 12.3799C4.06892 12.418 4.06093 12.4588 4.06108 12.5C4.06123 12.5412 4.06953 12.5819 4.08549 12.6199C4.10145 12.6579 4.12477 12.6923 4.15409 12.7213C4.19601 12.763 4.57976 13.125 5.31241 13.125C6.04569 13.125 6.4296 12.7623 6.47089 12.721C6.49991 12.6919 6.52293 12.6575 6.53863 12.6196C6.55434 12.5817 6.56242 12.541 6.56242 12.5C6.56242 12.4589 6.55434 12.4183 6.53863 12.3804C6.52293 12.3425 6.49991 12.308 6.47089 12.279C6.44187 12.25 6.40742 12.227 6.3695 12.2113C6.33159 12.1956 6.29095 12.1875 6.24991 12.1875C6.20887 12.1875 6.16824 12.1956 6.13032 12.2113C6.09241 12.227 6.05796 12.25 6.02894 12.279C6.0273 12.2807 5.89382 12.402 5.6305 12.4641C5.63593 12.2753 5.64581 12.0543 5.66148 11.8169C5.85837 11.7685 6.04338 11.6805 6.2053 11.5585C6.40503 11.4085 6.98542 11.2499 7.18394 11.2499C7.48747 11.2459 7.7882 11.3083 8.06502 11.4329C8.34183 11.5575 8.58803 11.7412 8.78632 11.971C9.2619 12.5226 9.46304 13.3202 9.33815 14.1594L9.14284 15.4709C9.0326 16.2281 8.78563 16.959 8.41397 17.6279ZM16.7468 16.8391C15.3942 18.0714 13.664 18.75 11.8749 18.75C10.8373 18.7464 9.81277 18.5177 8.8721 18.0796C8.90237 18.0317 8.93179 17.9828 8.95983 17.9325C9.03674 17.7948 9.10873 17.6545 9.17581 17.5117C10.0195 17.9121 10.9411 18.1214 11.8749 18.125C13.4281 18.125 14.9457 17.5385 16.148 16.4737C17.2047 15.5378 17.8961 14.3315 18.0772 13.125H18.7379C18.6385 14.4278 17.9253 15.7656 16.7468 16.8391Z" fill="#00A884"/>
<path d="M15.9375 14.375C16.1101 14.375 16.25 14.2351 16.25 14.0625C16.25 13.8899 16.1101 13.75 15.9375 13.75C15.7649 13.75 15.625 13.8899 15.625 14.0625C15.625 14.2351 15.7649 14.375 15.9375 14.375Z" fill="#00A884"/>
<path d="M14.375 15.9375C14.5476 15.9375 14.6875 15.7976 14.6875 15.625C14.6875 15.4524 14.5476 15.3125 14.375 15.3125C14.2024 15.3125 14.0625 15.4524 14.0625 15.625C14.0625 15.7976 14.2024 15.9375 14.375 15.9375Z" fill="#00A884"/>
<path d="M12.8125 15C12.9851 15 13.125 14.8601 13.125 14.6875C13.125 14.5149 12.9851 14.375 12.8125 14.375C12.6399 14.375 12.5 14.5149 12.5 14.6875C12.5 14.8601 12.6399 15 12.8125 15Z" fill="#00A884"/>
<path d="M10.9375 15C11.1101 15 11.25 14.8601 11.25 14.6875C11.25 14.5149 11.1101 14.375 10.9375 14.375C10.7649 14.375 10.625 14.5149 10.625 14.6875C10.625 14.8601 10.7649 15 10.9375 15Z" fill="#00A884"/>
<path d="M11.875 16.875C12.0476 16.875 12.1875 16.7351 12.1875 16.5625C12.1875 16.3899 12.0476 16.25 11.875 16.25C11.7024 16.25 11.5625 16.3899 11.5625 16.5625C11.5625 16.7351 11.7024 16.875 11.875 16.875Z" fill="#00A884"/>
</svg>
