<svg width="98" height="98" viewBox="0 0 98 98" fill="none" xmlns="http://www.w3.org/2000/svg">
<path d="M83.3578 23.8781C74.1577 18.5046 61.9557 15.545 49 15.545C40.0439 15.545 31.2438 16.9151 23.5508 19.5072C22.8013 19.7596 22.3984 20.5721 22.651 21.3215C22.9035 22.0708 23.716 22.4736 24.4655 22.2215C31.8672 19.7275 40.3511 18.4092 49 18.4092C61.4558 18.4092 73.1447 21.2298 81.9133 26.3515C90.4398 31.3319 95.1358 37.8697 95.1358 44.7609C95.1358 45.027 95.119 45.9419 95.1094 46.207C94.8701 52.8239 92.9566 58.4327 89.5756 62.4264C85.5818 67.1442 79.5446 69.7327 71.6317 70.1199C70.8418 70.1586 70.2327 70.8304 70.2714 71.6204C70.31 72.4103 70.9775 73.0194 71.7718 72.9809C80.5091 72.5533 87.2347 69.625 91.7619 64.2773C93.0079 62.8052 94.0762 61.1482 94.9587 59.329C94.4366 64.3012 92.2358 68.9952 88.7304 72.5923C85.1226 76.2947 80.3007 78.6668 75.1534 79.2715C73.3473 79.4837 71.446 79.5913 69.5031 79.5913C66.9174 79.5913 64.1653 79.4047 61.3235 79.0368C52.0125 77.8309 45.7773 72.0455 41.2243 67.8214C37.5288 64.3927 35.1472 62.291 32.8497 62.291C32.6608 62.291 32.4715 62.3029 32.2719 62.3276C29.352 62.6842 26.5054 62.8651 23.8107 62.8651C20.4973 62.8653 16.6395 62.3056 12.6543 61.2467C7.20702 59.7997 3.31229 55.0249 2.90038 49.4442C2.95282 49.5022 3.00718 49.5595 3.06097 49.6171C3.08298 49.6406 3.10461 49.6644 3.12681 49.6879C3.25333 49.8215 3.38387 49.9532 3.51786 50.0837C3.54714 50.1122 3.57681 50.1406 3.60648 50.1689C3.74582 50.3023 3.88765 50.4348 4.03465 50.5651C4.20443 50.7154 4.3788 50.8629 4.55738 51.0077C10.0712 55.4705 19.7926 57.2253 31.4123 55.8328C31.4674 55.8263 31.5219 55.8208 31.5772 55.8141C31.7103 55.7978 31.8416 55.7861 31.9727 55.775C32.3333 55.7446 32.6878 55.7316 33.0352 55.7386C37.6165 55.8322 41.1215 59.0842 45.1208 62.7948C49.5476 66.9022 54.5653 71.558 62.0589 72.5284C62.06 72.5286 62.061 72.5284 62.0621 72.5286C62.9996 72.6501 63.9347 72.7512 64.8412 72.8289C65.6303 72.8948 66.3228 72.3123 66.3904 71.5243C66.458 70.7363 65.874 70.0428 65.086 69.9751C64.2195 69.9006 63.3248 69.8041 62.4268 69.6878C57.3486 69.0301 53.5346 66.4183 50.0769 63.4223C49.0507 62.5332 48.0558 61.6108 47.0687 60.6949C43.0773 56.9914 39.272 53.4617 34.1922 52.9359C33.2515 52.8384 32.2671 52.8442 31.2298 52.9709C30.9018 53.0109 30.5756 53.0478 30.251 53.0829C30.2029 53.088 30.1551 53.093 30.1071 53.0982C24.9437 53.6426 20.237 53.5359 16.2232 52.8206C16.1579 52.8088 16.0932 52.7967 16.0287 52.7845C15.9405 52.7682 15.8538 52.7508 15.7661 52.7339C10.7503 51.748 7.82105 49.9608 6.32598 48.7521C6.19257 48.643 6.0605 48.5331 5.93302 48.4204C3.92517 46.643 2.86401 44.5119 2.86401 42.2579C2.86401 35.725 8.50648 29.3156 18.3444 24.673C19.0597 24.3354 19.3659 23.4819 19.0283 22.7666C18.6906 22.0513 17.8368 21.7449 17.1219 22.0829C6.2408 27.2176 0 34.571 0 42.2577V48.4623C0 55.7549 4.90115 62.1502 11.9189 64.0147C16.1405 65.1363 20.2529 65.7291 23.8109 65.7289C26.621 65.7289 29.5845 65.5409 32.62 65.1702C32.7035 65.1598 32.7787 65.1549 32.8497 65.1549C34.1398 65.1549 36.8687 67.6868 39.2762 69.9205C44.1124 74.4076 50.7359 80.5531 60.9554 81.8767C63.9188 82.2605 66.7947 82.4551 69.5031 82.4551C71.5574 82.4551 73.5708 82.341 75.4876 82.116C81.2853 81.4347 86.7168 78.7623 90.7817 74.591C94.8586 70.4072 97.3712 64.9068 97.857 59.1024L97.8752 58.8764C97.8779 58.8431 97.8792 58.8094 97.8796 58.7757L97.973 46.2692C97.9747 46.0003 98 45.0453 98 44.7609C98 36.8095 92.8001 29.3931 83.3578 23.8781Z" fill="#00A884"/>
<path d="M80.2753 29.1542C71.9958 24.3185 60.8885 21.6553 48.9991 21.6553C37.3312 21.6553 25.8803 24.2197 17.5828 28.6908C10.2912 32.6196 6.10938 37.5646 6.10938 42.2577C6.10938 43.4928 6.71728 45.337 9.61364 47.1083C12.8731 49.1014 17.9145 50.1989 23.8097 50.1987C26.0265 50.1987 28.3902 50.0473 30.835 49.7485C31.5084 49.6664 32.186 49.6247 32.8486 49.6247C39.9092 49.6247 44.8852 54.2416 49.2757 58.3153C53.3961 62.1383 57.2878 65.7492 62.8428 66.4683C65.1817 66.7713 67.4224 66.925 69.5022 66.925C77.4672 66.925 83.3845 64.7087 87.0899 60.3375C91.0562 55.659 91.8889 49.2846 91.8889 44.7609C91.8889 37.0838 84.6125 31.6878 80.2753 29.1542ZM84.9052 58.4857C81.769 62.1852 76.5867 64.0608 69.5022 64.0608C67.545 64.0608 65.4283 63.9151 63.2106 63.628C58.5643 63.0262 54.9987 59.7179 51.2236 56.2156C46.4471 51.784 41.0332 46.7607 32.8486 46.7607C32.0704 46.7607 31.2762 46.8095 30.488 46.9058C28.1578 47.1904 25.9109 47.3347 23.8099 47.3347C18.4346 47.3349 13.9237 46.3867 11.1081 44.665C9.79165 43.8599 8.97377 42.9377 8.97377 42.2581C8.97377 38.758 12.7933 34.5256 18.9414 31.2128C26.8347 26.9589 37.7904 24.5197 48.9991 24.5197C60.3886 24.5197 70.9829 27.0439 78.8306 31.6279C87.7003 36.8083 89.0247 42.0799 89.0247 44.7611C89.0247 48.8053 88.3099 54.4692 84.9052 58.4857Z" fill="#00A884"/>
<path d="M24.4282 31.8516C20.7147 31.8516 17.6934 34.8727 17.6934 38.5864C17.6936 42.2997 20.7147 45.321 24.4282 45.321C28.1418 45.321 31.163 42.2999 31.163 38.5864C31.163 34.8725 28.1418 31.8516 24.4282 31.8516ZM24.4282 42.4566C22.294 42.4566 20.5576 40.7204 20.5576 38.5862C20.5576 36.452 22.294 34.7156 24.4282 34.7156C26.5626 34.7156 28.2988 36.452 28.2988 38.5862C28.2988 40.7204 26.5624 42.4566 24.4282 42.4566Z" fill="#00A884"/>
</svg>
