<svg width="26" height="30" viewBox="0 0 26 30" fill="none" xmlns="http://www.w3.org/2000/svg">
<path d="M9.78543 12.3482C9.78543 11.3721 9.06574 10.5804 8.17829 10.5804H7.37472C5.59933 10.5804 4.16044 12.1632 4.16044 14.1161V16.7679C4.16044 18.7208 5.59933 20.3036 7.37472 20.3036H8.17829C9.06574 20.3036 9.78543 19.5119 9.78543 18.5357V12.3482ZM18.6247 20.3036C20.4001 20.3036 21.839 18.7208 21.839 16.7679V14.1161C21.839 12.1632 20.4001 10.5804 18.6247 10.5804H17.8211C16.9337 10.5804 16.214 11.3721 16.214 12.3482V18.5357C16.214 19.5119 16.9337 20.3036 17.8211 20.3036H18.6247ZM12.9997 0.857178C5.82684 0.857178 0.3726 7.42201 0.142578 15V15.884C0.142578 16.3723 0.502176 16.7679 0.94615 16.7679H1.74972C2.19369 16.7679 2.55329 16.3723 2.55329 15.884V15C2.55329 8.66392 7.23962 3.50896 12.9997 3.50896C18.7598 3.50896 23.4461 8.66392 23.4461 15H23.4401C23.4441 15.1343 23.4461 24.1553 23.4461 24.1553C23.4461 25.4453 22.4954 26.4911 21.3227 26.4911H16.214C16.214 25.0265 15.1347 23.8393 13.8033 23.8393H12.1961C10.8647 23.8393 9.78543 25.0265 9.78543 26.4911C9.78543 27.9557 10.8647 29.1429 12.1961 29.1429H21.3227C23.8268 29.1429 25.8569 26.9099 25.8569 24.1553V15C25.6268 7.42201 20.1726 0.857178 12.9997 0.857178Z" fill="#00A884"/>
</svg>
