<svg width="19" height="16" viewBox="0 0 19 16" fill="none" xmlns="http://www.w3.org/2000/svg">
<path d="M18.2077 1.24973C17.4496 1.75634 16.6102 2.14381 15.7218 2.39723C15.2451 1.87786 14.6114 1.50975 13.9066 1.34267C13.2018 1.1756 12.4598 1.21763 11.781 1.46307C11.1022 1.70851 10.5194 2.14553 10.1113 2.71502C9.70322 3.2845 9.48961 3.95898 9.49935 4.64723V5.39723C8.1081 5.43141 6.72952 5.13909 5.4864 4.54631C4.24327 3.95354 3.17418 3.07871 2.37435 1.99973C2.37435 1.99973 -0.792318 8.74973 6.33268 11.7497C4.70227 12.7982 2.76001 13.3239 0.791016 13.2497C7.91602 16.9997 16.6243 13.2497 16.6243 4.62473C16.6236 4.41582 16.6024 4.20743 16.561 4.00223C17.369 3.24735 17.9392 2.29426 18.2077 1.24973Z" stroke="#00A884" stroke-width="1.3" stroke-linecap="round" stroke-linejoin="round"/>
</svg>
